solid OpenSCAD_Model
  facet normal 1 -0 0
    outer loop
      vertex 207 0 10
      vertex 207 170 -20
      vertex 207 170 10
    endloop
  endfacet
  facet normal 1 0 0
    outer loop
      vertex 207 170 -20
      vertex 207 0 10
      vertex 207 0 -20
    endloop
  endfacet
  facet normal -0 0 1
    outer loop
      vertex 0 170 10
      vertex 207 0 10
      vertex 207 170 10
    endloop
  endfacet
  facet normal 0 0 1
    outer loop
      vertex 207 0 10
      vertex 0 170 10
      vertex 0 0 10
    endloop
  endfacet
  facet normal 0 0 -1
    outer loop
      vertex 15 0 0
      vertex 192 170 0
      vertex 192 0 0
    endloop
  endfacet
  facet normal -0 0 -1
    outer loop
      vertex 192 170 0
      vertex 15 0 0
      vertex 15 170 0
    endloop
  endfacet
  facet normal -1 0 0
    outer loop
      vertex 0 0 -20
      vertex 0 170 10
      vertex 0 170 -20
    endloop
  endfacet
  facet normal -1 -0 0
    outer loop
      vertex 0 170 10
      vertex 0 0 -20
      vertex 0 0 10
    endloop
  endfacet
  facet normal 0 1 0
    outer loop
      vertex 207 170 10
      vertex 192 170 0
      vertex 0 170 10
    endloop
  endfacet
  facet normal 0 1 0
    outer loop
      vertex 207 170 10
      vertex 202 170 -15
      vertex 192 170 0
    endloop
  endfacet
  facet normal 0 1 -0
    outer loop
      vertex 207 170 -20
      vertex 202 170 -15
      vertex 207 170 10
    endloop
  endfacet
  facet normal 0 1 0
    outer loop
      vertex 202 170 -15
      vertex 207 170 -20
      vertex 202 170 -20
    endloop
  endfacet
  facet normal 0 1 -0
    outer loop
      vertex 15 170 0
      vertex 0 170 10
      vertex 192 170 0
    endloop
  endfacet
  facet normal 0 1 0
    outer loop
      vertex 5 170 -15
      vertex 15 170 0
      vertex 15 170 -15
    endloop
  endfacet
  facet normal 0 1 0
    outer loop
      vertex 15 170 0
      vertex 5 170 -15
      vertex 0 170 10
    endloop
  endfacet
  facet normal 0 1 0
    outer loop
      vertex 0 170 -20
      vertex 5 170 -15
      vertex 5 170 -20
    endloop
  endfacet
  facet normal 0 1 0
    outer loop
      vertex 5 170 -15
      vertex 0 170 -20
      vertex 0 170 10
    endloop
  endfacet
  facet normal 0 1 0
    outer loop
      vertex 192 170 0
      vertex 202 170 -15
      vertex 192 170 -15
    endloop
  endfacet
  facet normal 0 -1 0
    outer loop
      vertex 0 0 10
      vertex 15 0 0
      vertex 207 0 10
    endloop
  endfacet
  facet normal 0 -1 0
    outer loop
      vertex 0 0 10
      vertex 5 0 -15
      vertex 15 0 0
    endloop
  endfacet
  facet normal 0 -1 0
    outer loop
      vertex 0 0 -20
      vertex 5 0 -15
      vertex 0 0 10
    endloop
  endfacet
  facet normal 0 -1 -0
    outer loop
      vertex 5 0 -15
      vertex 0 0 -20
      vertex 5 0 -20
    endloop
  endfacet
  facet normal 0 -1 0
    outer loop
      vertex 192 0 0
      vertex 207 0 10
      vertex 15 0 0
    endloop
  endfacet
  facet normal 0 -1 0
    outer loop
      vertex 202 0 -15
      vertex 192 0 0
      vertex 192 0 -15
    endloop
  endfacet
  facet normal 0 -1 0
    outer loop
      vertex 192 0 0
      vertex 202 0 -15
      vertex 207 0 10
    endloop
  endfacet
  facet normal 0 -1 0
    outer loop
      vertex 207 0 -20
      vertex 202 0 -15
      vertex 202 0 -20
    endloop
  endfacet
  facet normal 0 -1 0
    outer loop
      vertex 202 0 -15
      vertex 207 0 -20
      vertex 207 0 10
    endloop
  endfacet
  facet normal 0 -1 -0
    outer loop
      vertex 15 0 0
      vertex 5 0 -15
      vertex 15 0 -15
    endloop
  endfacet
  facet normal 1 -0 0
    outer loop
      vertex 15 0 0
      vertex 15 170 -15
      vertex 15 170 0
    endloop
  endfacet
  facet normal 1 0 0
    outer loop
      vertex 15 170 -15
      vertex 15 0 0
      vertex 15 0 -15
    endloop
  endfacet
  facet normal 0 0 -1
    outer loop
      vertex 5 0 -15
      vertex 15 170 -15
      vertex 15 0 -15
    endloop
  endfacet
  facet normal -0 0 -1
    outer loop
      vertex 15 170 -15
      vertex 5 0 -15
      vertex 5 170 -15
    endloop
  endfacet
  facet normal 1 -0 0
    outer loop
      vertex 5 0 -15
      vertex 5 170 -20
      vertex 5 170 -15
    endloop
  endfacet
  facet normal 1 0 0
    outer loop
      vertex 5 170 -20
      vertex 5 0 -15
      vertex 5 0 -20
    endloop
  endfacet
  facet normal -1 0 0
    outer loop
      vertex 202 0 -20
      vertex 202 170 -15
      vertex 202 170 -20
    endloop
  endfacet
  facet normal -1 -0 0
    outer loop
      vertex 202 170 -15
      vertex 202 0 -20
      vertex 202 0 -15
    endloop
  endfacet
  facet normal 0 0 -1
    outer loop
      vertex 192 0 -15
      vertex 202 170 -15
      vertex 202 0 -15
    endloop
  endfacet
  facet normal -0 0 -1
    outer loop
      vertex 202 170 -15
      vertex 192 0 -15
      vertex 192 170 -15
    endloop
  endfacet
  facet normal -1 0 0
    outer loop
      vertex 192 0 -15
      vertex 192 170 0
      vertex 192 170 -15
    endloop
  endfacet
  facet normal -1 -0 0
    outer loop
      vertex 192 170 0
      vertex 192 0 -15
      vertex 192 0 0
    endloop
  endfacet
  facet normal 0 0 -1
    outer loop
      vertex 0 0 -20
      vertex 5 170 -20
      vertex 5 0 -20
    endloop
  endfacet
  facet normal -0 0 -1
    outer loop
      vertex 5 170 -20
      vertex 0 0 -20
      vertex 0 170 -20
    endloop
  endfacet
  facet normal 0 0 -1
    outer loop
      vertex 202 0 -20
      vertex 207 170 -20
      vertex 207 0 -20
    endloop
  endfacet
  facet normal -0 0 -1
    outer loop
      vertex 207 170 -20
      vertex 202 0 -20
      vertex 202 170 -20
    endloop
  endfacet
endsolid OpenSCAD_Model
