solid OpenSCAD_Model
  facet normal 1 -0 0
    outer loop
      vertex 275 0 10
      vertex 275 180 -20
      vertex 275 180 10
    endloop
  endfacet
  facet normal 1 0 0
    outer loop
      vertex 275 180 -20
      vertex 275 0 10
      vertex 275 0 -20
    endloop
  endfacet
  facet normal -0 0 1
    outer loop
      vertex 0 180 10
      vertex 275 0 10
      vertex 275 180 10
    endloop
  endfacet
  facet normal 0 0 1
    outer loop
      vertex 275 0 10
      vertex 0 180 10
      vertex 0 0 10
    endloop
  endfacet
  facet normal 0 0 -1
    outer loop
      vertex 15 0 0
      vertex 260 180 0
      vertex 260 0 0
    endloop
  endfacet
  facet normal -0 0 -1
    outer loop
      vertex 260 180 0
      vertex 15 0 0
      vertex 15 180 0
    endloop
  endfacet
  facet normal -1 0 0
    outer loop
      vertex 0 0 -20
      vertex 0 180 10
      vertex 0 180 -20
    endloop
  endfacet
  facet normal -1 -0 0
    outer loop
      vertex 0 180 10
      vertex 0 0 -20
      vertex 0 0 10
    endloop
  endfacet
  facet normal 0 1 0
    outer loop
      vertex 275 180 10
      vertex 260 180 0
      vertex 0 180 10
    endloop
  endfacet
  facet normal 0 1 0
    outer loop
      vertex 275 180 10
      vertex 270 180 -15
      vertex 260 180 0
    endloop
  endfacet
  facet normal 0 1 -0
    outer loop
      vertex 275 180 -20
      vertex 270 180 -15
      vertex 275 180 10
    endloop
  endfacet
  facet normal 0 1 0
    outer loop
      vertex 270 180 -15
      vertex 275 180 -20
      vertex 270 180 -20
    endloop
  endfacet
  facet normal 0 1 -0
    outer loop
      vertex 15 180 0
      vertex 0 180 10
      vertex 260 180 0
    endloop
  endfacet
  facet normal 0 1 0
    outer loop
      vertex 5 180 -15
      vertex 15 180 0
      vertex 15 180 -15
    endloop
  endfacet
  facet normal 0 1 0
    outer loop
      vertex 15 180 0
      vertex 5 180 -15
      vertex 0 180 10
    endloop
  endfacet
  facet normal 0 1 0
    outer loop
      vertex 0 180 -20
      vertex 5 180 -15
      vertex 5 180 -20
    endloop
  endfacet
  facet normal 0 1 0
    outer loop
      vertex 5 180 -15
      vertex 0 180 -20
      vertex 0 180 10
    endloop
  endfacet
  facet normal 0 1 0
    outer loop
      vertex 260 180 0
      vertex 270 180 -15
      vertex 260 180 -15
    endloop
  endfacet
  facet normal 0 -1 0
    outer loop
      vertex 0 0 10
      vertex 15 0 0
      vertex 275 0 10
    endloop
  endfacet
  facet normal 0 -1 0
    outer loop
      vertex 0 0 10
      vertex 5 0 -15
      vertex 15 0 0
    endloop
  endfacet
  facet normal 0 -1 0
    outer loop
      vertex 0 0 -20
      vertex 5 0 -15
      vertex 0 0 10
    endloop
  endfacet
  facet normal 0 -1 -0
    outer loop
      vertex 5 0 -15
      vertex 0 0 -20
      vertex 5 0 -20
    endloop
  endfacet
  facet normal 0 -1 0
    outer loop
      vertex 260 0 0
      vertex 275 0 10
      vertex 15 0 0
    endloop
  endfacet
  facet normal 0 -1 0
    outer loop
      vertex 270 0 -15
      vertex 260 0 0
      vertex 260 0 -15
    endloop
  endfacet
  facet normal 0 -1 0
    outer loop
      vertex 260 0 0
      vertex 270 0 -15
      vertex 275 0 10
    endloop
  endfacet
  facet normal 0 -1 0
    outer loop
      vertex 275 0 -20
      vertex 270 0 -15
      vertex 270 0 -20
    endloop
  endfacet
  facet normal 0 -1 0
    outer loop
      vertex 270 0 -15
      vertex 275 0 -20
      vertex 275 0 10
    endloop
  endfacet
  facet normal 0 -1 -0
    outer loop
      vertex 15 0 0
      vertex 5 0 -15
      vertex 15 0 -15
    endloop
  endfacet
  facet normal 1 -0 0
    outer loop
      vertex 15 0 0
      vertex 15 180 -15
      vertex 15 180 0
    endloop
  endfacet
  facet normal 1 0 0
    outer loop
      vertex 15 180 -15
      vertex 15 0 0
      vertex 15 0 -15
    endloop
  endfacet
  facet normal 0 0 -1
    outer loop
      vertex 5 0 -15
      vertex 15 180 -15
      vertex 15 0 -15
    endloop
  endfacet
  facet normal -0 0 -1
    outer loop
      vertex 15 180 -15
      vertex 5 0 -15
      vertex 5 180 -15
    endloop
  endfacet
  facet normal 1 -0 0
    outer loop
      vertex 5 0 -15
      vertex 5 180 -20
      vertex 5 180 -15
    endloop
  endfacet
  facet normal 1 0 0
    outer loop
      vertex 5 180 -20
      vertex 5 0 -15
      vertex 5 0 -20
    endloop
  endfacet
  facet normal -1 0 0
    outer loop
      vertex 270 0 -20
      vertex 270 180 -15
      vertex 270 180 -20
    endloop
  endfacet
  facet normal -1 -0 0
    outer loop
      vertex 270 180 -15
      vertex 270 0 -20
      vertex 270 0 -15
    endloop
  endfacet
  facet normal 0 0 -1
    outer loop
      vertex 260 0 -15
      vertex 270 180 -15
      vertex 270 0 -15
    endloop
  endfacet
  facet normal -0 0 -1
    outer loop
      vertex 270 180 -15
      vertex 260 0 -15
      vertex 260 180 -15
    endloop
  endfacet
  facet normal -1 0 0
    outer loop
      vertex 260 0 -15
      vertex 260 180 0
      vertex 260 180 -15
    endloop
  endfacet
  facet normal -1 -0 0
    outer loop
      vertex 260 180 0
      vertex 260 0 -15
      vertex 260 0 0
    endloop
  endfacet
  facet normal 0 0 -1
    outer loop
      vertex 0 0 -20
      vertex 5 180 -20
      vertex 5 0 -20
    endloop
  endfacet
  facet normal -0 0 -1
    outer loop
      vertex 5 180 -20
      vertex 0 0 -20
      vertex 0 180 -20
    endloop
  endfacet
  facet normal 0 0 -1
    outer loop
      vertex 270 0 -20
      vertex 275 180 -20
      vertex 275 0 -20
    endloop
  endfacet
  facet normal -0 0 -1
    outer loop
      vertex 275 180 -20
      vertex 270 0 -20
      vertex 270 180 -20
    endloop
  endfacet
endsolid OpenSCAD_Model
